# xmcd
#
# Track frame offsets:
#        150
#        16555
#        33017
#        59522
#        72920
#        95145
#
# Disc length: 1513 seconds
#
# Revision: 0
# Processed by: cddbd v1.5PL3 Copyright (c) Steve Scherf et al.
# Submitted via: ExactAudioCopy v0.95a3
#
DISCID=4405e706
DTITLE=Boo Radleys - Wish I Was Skinny EP
DYEAR=1900
DGENRE=BritPop
TTITLE0=Wish I Was Skinny
TTITLE1=Peachy Keen
TTITLE2=Furthur
TTITLE3=Crow Eye
TTITLE4=As Bound As Tomorrow
TTITLE5=Zoom
EXTD=
EXTT0=
EXTT1=
EXTT2=
EXTT3=
EXTT4=
EXTT5=
PLAYORDER=
